<svg width="35" height="35" viewBox="0 0 35 35" fill="none" xmlns="http://www.w3.org/2000/svg">
<path d="M23.4334 23.0126H24.5995L33.5865 32.0176L32.0176 33.5865L23.0126 24.5995V23.4334V23.0298L22.7324 22.7393L22.548 22.548L22.7393 22.7324L23.0298 23.0126H23.4334ZM21.5164 21.5164L20.8204 22.1148C18.7133 23.9261 15.9807 25.0149 13.0074 25.0149C6.37561 25.0149 1 19.6393 1 13.0074C1 6.37561 6.37561 1 13.0074 1C19.6393 1 25.0149 6.37561 25.0149 13.0074C25.0149 15.9807 23.9261 18.7133 22.1148 20.8204L21.5164 21.5164ZM3.00229 13.0074C3.00229 18.5426 7.4723 23.0126 13.0074 23.0126C18.5426 23.0126 23.0126 18.5426 23.0126 13.0074C23.0126 7.4723 18.5426 3.00229 13.0074 3.00229C7.4723 3.00229 3.00229 7.4723 3.00229 13.0074Z" fill="#0E333D" stroke="#0E333D" stroke-width="2"/>
</svg>
