<svg width="57" height="57" viewBox="0 0 57 57" fill="none" xmlns="http://www.w3.org/2000/svg">
<path d="M9.90017 39.8204L9.89315 40.2859L10.1509 40.6736C14.0936 46.6028 20.8517 50.52 28.5 50.52C36.1483 50.52 42.9064 46.6028 46.8491 40.6736L47.1068 40.2859L47.0998 39.8204C47.0703 37.8624 46.0624 36.2442 44.7143 34.9833C43.3723 33.7281 41.5923 32.7242 39.7231 31.9431C35.9908 30.3837 31.541 29.565 28.5 29.565C25.4452 29.565 20.9952 30.3835 17.2658 31.9434C15.398 32.7246 13.6205 33.7287 12.2807 34.9843C10.9345 36.2458 9.92967 37.8637 9.90017 39.8204ZM1.5 28.5C1.5 13.5964 13.5964 1.5 28.5 1.5C43.4036 1.5 55.5 13.5964 55.5 28.5C55.5 43.4036 43.4036 55.5 28.5 55.5C13.5964 55.5 1.5 43.4036 1.5 28.5ZM38.55 17.1C38.55 11.5406 34.0594 7.05 28.5 7.05C22.9406 7.05 18.45 11.5406 18.45 17.1C18.45 22.6594 22.9406 27.15 28.5 27.15C34.0594 27.15 38.55 22.6594 38.55 17.1Z" stroke="white" stroke-width="3"/>
</svg>
